<svg id="svg" xmlns="http://www.w3.org/2000/svg" version="1.1" height="500" width="500"><g id="viewport" transform="translate(220.82933044433594 175.1015625) scale(0.5740076553039185)"><path vector-effect="non-scaling-stroke" stroke-linecap="square" style="stroke:black;stroke-width:1;" d="M 250 0 36.46990847721254 0"></path><path vector-effect="non-scaling-stroke" stroke-linecap="square" style="stroke:black;stroke-width:1;" d="M 143.4959159211998 34.45032142742632 87.17310565074604 20.92841102979096"></path><path vector-effect="non-scaling-stroke" stroke-linecap="square" style="stroke:black;stroke-width:1;" fill="none" d="M 145.75650696848513 23.085562779862887 A 147.5733801622672 147.5733801622672 0  0  1 140.35062483502617 45.6026823874953"></path><path vector-effect="non-scaling-stroke" stroke-linecap="square" style="stroke:black;stroke-width:1;" d="M 149.77892560592358 76.3161743941508 90.09862855969854 45.90754421571197"></path><path vector-effect="non-scaling-stroke" stroke-linecap="square" style="stroke:black;stroke-width:1;" d="M 150.30453057399538 128.37219650090253 148.2388871056975 126.60797031157554"></path><path vector-effect="non-scaling-stroke" stroke-linecap="square" style="stroke:black;stroke-width:1;" fill="none" d="M 159.9131583218949 116.18371030851104 A 197.6635341825483 197.6635341825483 0  0  1 139.76922541377883 139.76922541377883"></path><path vector-effect="non-scaling-stroke" stroke-linecap="square" style="stroke:black;stroke-width:1;" d="M 114.71087454070283 157.88597379926034 114.58699115836382 157.71546295156213"></path><path vector-effect="non-scaling-stroke" stroke-linecap="square" style="stroke:black;stroke-width:1;" d="M 132.33019155092876 143.15399470796135 131.73192306766583 142.50679150903"></path><path vector-effect="non-scaling-stroke" stroke-linecap="square" style="stroke:black;stroke-width:1;" fill="none" d="M 148.2388871056975 126.60797031157554 A 194.94703331098043 194.94703331098043 0  0  1 114.58699115836382 157.71546295156213"></path><path vector-effect="non-scaling-stroke" stroke-linecap="square" style="stroke:black;stroke-width:1;" fill="none" d="M 89.03279204880754 174.7366930094451 A 196.11157524196085 196.11157524196085 0  0  1 60.6018095434071 186.51319155477415"></path><path vector-effect="non-scaling-stroke" stroke-linecap="square" style="stroke:black;stroke-width:1;" fill="none" d="M 75.04865074011815 181.1834704545948 A 196.11157524196085 196.11157524196085 0  0  1 30.67860936117314 193.6971163222308"></path><path vector-effect="non-scaling-stroke" stroke-linecap="square" style="stroke:black;stroke-width:1;" fill="none" d="M 53.232614207426224 188.74861252079867 A 196.11157524196085 196.11157524196085 0  0  1 1.2008370644790633e-14 196.11157524196085"></path><path vector-effect="non-scaling-stroke" stroke-linecap="square" style="stroke:black;stroke-width:1;" d="M -1.9252899598617732 196.10212442106211 -1.9052046777537608 194.0563201146498"></path><path vector-effect="non-scaling-stroke" stroke-linecap="square" style="stroke:black;stroke-width:1;" fill="none" d="M 26.869706154840515 194.26211374078014 A 196.11157524196085 196.11157524196085 0  0  1 -30.67860936117312 193.6971163222308"></path><path vector-effect="non-scaling-stroke" stroke-linecap="square" style="stroke:black;stroke-width:1;" d="M 69.84327223748033 181.06187479550957 69.3739824271297 179.84528670960776"></path><path vector-effect="non-scaling-stroke" stroke-linecap="square" style="stroke:black;stroke-width:1;" fill="none" d="M 131.73192306766583 142.50679150903 A 194.06567234135863 194.06567234135863 0  0  1 -1.9052046777537608 194.0563201146498"></path><path vector-effect="non-scaling-stroke" stroke-linecap="square" style="stroke:black;stroke-width:1;" d="M -60.68357057450441 186.7648261341649 -60.06827160914388 184.87113063803386"></path><path vector-effect="non-scaling-stroke" stroke-linecap="square" style="stroke:black;stroke-width:1;" d="M -88.6739350621561 174.03239651746912 -88.2489479307968 173.19831230875886"></path><path vector-effect="non-scaling-stroke" stroke-linecap="square" style="stroke:black;stroke-width:1;" d="M -74.3879229105895 179.58833236750945 -73.76671256056193 178.08859791538634"></path><path vector-effect="non-scaling-stroke" stroke-linecap="square" style="stroke:black;stroke-width:1;" fill="none" d="M -60.06827160914388 184.87113063803386 A 194.38501021811032 194.38501021811032 0  0  1 -88.2489479307968 173.19831230875886"></path><path vector-effect="non-scaling-stroke" stroke-linecap="square" style="stroke:black;stroke-width:1;" d="M -2.3654826962433315 192.74719474242548 -1.27821954144996 104.15346993266925"></path><path vector-effect="non-scaling-stroke" stroke-linecap="square" style="stroke:black;stroke-width:1;" fill="none" d="M 69.3739824271297 179.84528670960776 A 192.7617093446225 192.7617093446225 0  0  1 -73.76671256056193 178.08859791538634"></path><path vector-effect="non-scaling-stroke" stroke-linecap="square" style="stroke:black;stroke-width:1;" d="M -132.04137976870547 154.60059221108986 -85.8068825948802 100.46695125568509"></path><path vector-effect="non-scaling-stroke" stroke-linecap="square" style="stroke:black;stroke-width:1;" fill="none" d="M -119.50451759758984 164.48385743595188 A 203.3132289922208 203.3132289922208 0  0  1 -143.76416292533267 143.7641629253327"></path><path vector-effect="non-scaling-stroke" stroke-linecap="square" style="stroke:black;stroke-width:1;" d="M -150.85468968652762 109.60234760631404 -123.42014836788516 89.66998660200004"></path><path vector-effect="non-scaling-stroke" stroke-linecap="square" style="stroke:black;stroke-width:1;" d="M -190.74091842936303 97.1873521997014 -135.92811792173075 69.2588353830016"></path><path vector-effect="non-scaling-stroke" stroke-linecap="square" style="stroke:black;stroke-width:1;" d="M -130.07511130258004 79.71013072361043 -112.65319014588016 69.03396370787299"></path><path vector-effect="non-scaling-stroke" stroke-linecap="square" style="stroke:black;stroke-width:1;" fill="none" d="M -123.42014836788516 89.66998660200004 A 152.5556931758158 152.5556931758158 0  0  1 -135.92811792173075 69.2588353830016"></path><path vector-effect="non-scaling-stroke" stroke-linecap="square" style="stroke:black;stroke-width:1;" d="M -100.46695125568507 85.80688259488022 -93.80139746562426 80.11396184487147"></path><path vector-effect="non-scaling-stroke" stroke-linecap="square" style="stroke:black;stroke-width:1;" fill="none" d="M -85.8068825948802 100.46695125568509 A 132.1227815150126 132.1227815150126 0  0  1 -112.65319014588016 69.03396370787299"></path><path vector-effect="non-scaling-stroke" stroke-linecap="square" style="stroke:black;stroke-width:1;" fill="none" d="M -198.15750987754686 64.38527791568168 A 208.35513608536183 208.35513608536183 0  0  1 -205.78993861462513 32.5939242518981"></path><path vector-effect="non-scaling-stroke" stroke-linecap="square" style="stroke:black;stroke-width:1;" d="M -206.91091349092395 24.489520442447006 -197.22705830319373 23.34336065038742"></path><path vector-effect="non-scaling-stroke" stroke-linecap="square" style="stroke:black;stroke-width:1;" fill="none" d="M -202.59826708977036 48.639540554694 A 208.35513608536183 208.35513608536183 0  0  1 -208.35513608536183 2.5516145049284957e-14"></path><path vector-effect="non-scaling-stroke" stroke-linecap="square" style="stroke:black;stroke-width:1;" d="M -220.6436039411924 -34.946513721414384 -196.15854735056146 -31.068461736992703"></path><path vector-effect="non-scaling-stroke" stroke-linecap="square" style="stroke:black;stroke-width:1;" d="M -198.56540556645786 -3.899323737975768 -123.33322014308948 -2.4219533690322614"></path><path vector-effect="non-scaling-stroke" stroke-linecap="square" style="stroke:black;stroke-width:1;" fill="none" d="M -197.22705830319373 23.34336065038742 A 198.60368831767812 198.60368831767812 0  0  1 -196.15854735056146 -31.068461736992703"></path><path vector-effect="non-scaling-stroke" stroke-linecap="square" style="stroke:black;stroke-width:1;" d="M -116.14604972219142 41.55772109868126 -113.23127974294283 40.514799723790304"></path><path vector-effect="non-scaling-stroke" stroke-linecap="square" style="stroke:black;stroke-width:1;" fill="none" d="M -93.80139746562426 80.11396184487147 A 123.35699837863088 123.35699837863088 0  0  1 -123.33322014308948 -2.4219533690322614"></path><path vector-effect="non-scaling-stroke" stroke-linecap="square" style="stroke:black;stroke-width:1;" d="M -184.93977631393133 -60.09057594130418 -122.37561511334651 -39.76224768894359"></path><path vector-effect="non-scaling-stroke" stroke-linecap="square" style="stroke:black;stroke-width:1;" d="M -203.97431063145342 -103.93010230980752 -131.67306585830528 -67.0907780677625"></path><path vector-effect="non-scaling-stroke" stroke-linecap="square" style="stroke:black;stroke-width:1;" d="M -165.92463956266124 -120.55130708623419 -119.55664194250053 -86.86298487673608"></path><path vector-effect="non-scaling-stroke" stroke-linecap="square" style="stroke:black;stroke-width:1;" d="M -126.00327996105409 -77.21490926835043 -109.71205474690738 -67.2316336173562"></path><path vector-effect="non-scaling-stroke" stroke-linecap="square" style="stroke:black;stroke-width:1;" fill="none" d="M -131.67306585830528 -67.0907780677625 A 147.78013660253316 147.78013660253316 0  0  1 -119.55664194250053 -86.86298487673608"></path><path vector-effect="non-scaling-stroke" stroke-linecap="square" style="stroke:black;stroke-width:1;" d="M -116.85381215908865 -53.87034527024354 -109.21444631701145 -50.348549378825595"></path><path vector-effect="non-scaling-stroke" stroke-linecap="square" style="stroke:black;stroke-width:1;" fill="none" d="M -122.37561511334651 -39.76224768894359 A 128.67333645960542 128.67333645960542 0  0  1 -109.71205474690738 -67.2316336173562"></path><path vector-effect="non-scaling-stroke" stroke-linecap="square" style="stroke:black;stroke-width:1;" d="M -120.14392332998378 -5.311251807474072 -116.49206923077452 -5.149812792104277"></path><path vector-effect="non-scaling-stroke" stroke-linecap="square" style="stroke:black;stroke-width:1;" fill="none" d="M -113.23127974294283 40.514799723790304 A 120.2612643742091 120.2612643742091 0  0  1 -109.21444631701145 -50.348549378825595"></path><path vector-effect="non-scaling-stroke" stroke-linecap="square" style="stroke:black;stroke-width:1;" d="M -148.52991864145758 -148.52991864145756 -87.39787486468484 -87.39787486468481"></path><path vector-effect="non-scaling-stroke" stroke-linecap="square" style="stroke:black;stroke-width:1;" d="M -109.87367710557842 -151.22814270380562 -76.7207946728091 -105.59711471183554"></path><path vector-effect="non-scaling-stroke" stroke-linecap="square" style="stroke:black;stroke-width:1;" d="M -83.61927576993185 -164.11206908880047 -59.257206229789226 -116.29881547346955"></path><path vector-effect="non-scaling-stroke" stroke-linecap="square" style="stroke:black;stroke-width:1;" d="M -68.19923593534345 -111.29103822198466 -64.58043592708042 -105.38569332311894"></path><path vector-effect="non-scaling-stroke" stroke-linecap="square" style="stroke:black;stroke-width:1;" fill="none" d="M -76.7207946728091 -105.59711471183554 A 130.52521201167187 130.52521201167187 0  0  1 -59.257206229789226 -116.29881547346955"></path><path vector-effect="non-scaling-stroke" stroke-linecap="square" style="stroke:black;stroke-width:1;" d="M -76.51955397807151 -97.06459148795307 -74.17088330746304 -94.08531694529593"></path><path vector-effect="non-scaling-stroke" stroke-linecap="square" style="stroke:black;stroke-width:1;" fill="none" d="M -87.39787486468484 -87.39787486468481 A 123.5992599562239 123.5992599562239 0  0  1 -64.58043592708042 -105.38569332311894"></path><path vector-effect="non-scaling-stroke" stroke-linecap="square" style="stroke:black;stroke-width:1;" d="M -60.83374277453865 -187.22700864195153 -41.91984833060483 -129.01602708798595"></path><path vector-effect="non-scaling-stroke" stroke-linecap="square" style="stroke:black;stroke-width:1;" d="M -31.153966190356453 -196.6984012224979 -21.22119225652993 -133.98533475287596"></path><path vector-effect="non-scaling-stroke" stroke-linecap="square" style="stroke:black;stroke-width:1;" d="M -31.668142608521105 -131.90730712646365 -30.068967121101092 -125.24626183637882"></path><path vector-effect="non-scaling-stroke" stroke-linecap="square" style="stroke:black;stroke-width:1;" fill="none" d="M -41.91984833060483 -129.01602708798595 A 135.65547880431825 135.65547880431825 0  0  1 -21.22119225652993 -133.98533475287596"></path><path vector-effect="non-scaling-stroke" stroke-linecap="square" style="stroke:black;stroke-width:1;" d="M 18.121917218730932 -230.26079039320413 17.072769723911886 -216.9301075255886"></path><path vector-effect="non-scaling-stroke" stroke-linecap="square" style="stroke:black;stroke-width:1;" fill="none" d="M -4.242901548339381e-14 -230.9728024599122 A 230.9728024599122 230.9728024599122 0  0  1 36.13210679165924 -228.12914398423925"></path><path vector-effect="non-scaling-stroke" stroke-linecap="square" style="stroke:black;stroke-width:1;" d="M 73.75242424029292 -226.98662191111478 68.62813316732476 -211.21567563614653"></path><path vector-effect="non-scaling-stroke" stroke-linecap="square" style="stroke:black;stroke-width:1;" d="M 109.50948594735205 -214.9244675727419 100.82461819242864 -197.87945487800627"></path><path vector-effect="non-scaling-stroke" stroke-linecap="square" style="stroke:black;stroke-width:1;" d="M 84.98836645020941 -205.18006692802993 83.27225871412456 -201.03701635708052"></path><path vector-effect="non-scaling-stroke" stroke-linecap="square" style="stroke:black;stroke-width:1;" fill="none" d="M 68.62813316732476 -211.21567563614653 A 222.085304098371 222.085304098371 0  0  1 100.82461819242864 -197.87945487800627"></path><path vector-effect="non-scaling-stroke" stroke-linecap="square" style="stroke:black;stroke-width:1;" d="M 50.79792091985865 -211.5885683285582 32.2453345242401 -134.31148448030575"></path><path vector-effect="non-scaling-stroke" stroke-linecap="square" style="stroke:black;stroke-width:1;" fill="none" d="M 17.072769723911886 -216.9301075255886 A 217.6008984749584 217.6008984749584 0  0  1 83.27225871412456 -201.03701635708052"></path><path vector-effect="non-scaling-stroke" stroke-linecap="square" style="stroke:black;stroke-width:1;" d="M 118.09785301545756 -162.54774973693793 81.18958447289883 -111.74787619906512"></path><path vector-effect="non-scaling-stroke" stroke-linecap="square" style="stroke:black;stroke-width:1;" d="M 57.82862022077989 -125.43997427153901 53.9255339022802 -116.97352555630121"></path><path vector-effect="non-scaling-stroke" stroke-linecap="square" style="stroke:black;stroke-width:1;" fill="none" d="M 32.2453345242401 -134.31148448030575 A 138.1279713232753 138.1279713232753 0  0  1 81.18958447289883 -111.74787619906512"></path><path vector-effect="non-scaling-stroke" stroke-linecap="square" style="stroke:black;stroke-width:1;" d="M 12.625113307853626 -128.1849265775055 12.200670440255355 -123.87548582297497"></path><path vector-effect="non-scaling-stroke" stroke-linecap="square" style="stroke:black;stroke-width:1;" fill="none" d="M -30.068967121101092 -125.24626183637882 A 128.80515862230294 128.80515862230294 0  0  1 53.9255339022802 -116.97352555630121"></path><path vector-effect="non-scaling-stroke" stroke-linecap="square" style="stroke:black;stroke-width:1;" d="M 128.42269381238447 -128.4226938123845 88.01702206695529 -88.01702206695532"></path><path vector-effect="non-scaling-stroke" stroke-linecap="square" style="stroke:black;stroke-width:1;" d="M 53.21986310206839 -112.52394642238112 52.07084187205399 -110.09454514646363"></path><path vector-effect="non-scaling-stroke" stroke-linecap="square" style="stroke:black;stroke-width:1;" fill="none" d="M 12.200670440255355 -123.87548582297497 A 124.47486632678017 124.47486632678017 0  0  1 88.01702206695529 -88.01702206695532"></path><path vector-effect="non-scaling-stroke" stroke-linecap="square" style="stroke:black;stroke-width:1;" d="M 152.16951145005274 -110.55762153426207 102.70195948327881 -74.61734127408556"></path><path vector-effect="non-scaling-stroke" stroke-linecap="square" style="stroke:black;stroke-width:1;" d="M 218.15478614989152 -111.15541547238452 126.84565883283815 -64.63109133321886"></path><path vector-effect="non-scaling-stroke" stroke-linecap="square" style="stroke:black;stroke-width:1;" d="M 207.47673704527932 -67.41327837614679 135.3945084819813 -43.99234256756905"></path><path vector-effect="non-scaling-stroke" stroke-linecap="square" style="stroke:black;stroke-width:1;" d="M 131.52553298116308 -54.47965955914767 123.1298401863822 -51.002049738031346"></path><path vector-effect="non-scaling-stroke" stroke-linecap="square" style="stroke:black;stroke-width:1;" fill="none" d="M 126.84565883283815 -64.63109133321886 A 142.36221103811098 142.36221103811098 0  0  1 135.3945084819813 -43.99234256756905"></path><path vector-effect="non-scaling-stroke" stroke-linecap="square" style="stroke:black;stroke-width:1;" d="M 217.20143163354575 -34.40132718696723 131.63394495910282 -20.84876870005835"></path><path vector-effect="non-scaling-stroke" stroke-linecap="square" style="stroke:black;stroke-width:1;" d="M 128.27100859022067 -36.17616586997827 122.18042313820763 -34.458443120473845"></path><path vector-effect="non-scaling-stroke" stroke-linecap="square" style="stroke:black;stroke-width:1;" fill="none" d="M 123.1298401863822 -51.002049738031346 A 133.2747786409891 133.2747786409891 0  0  1 131.63394495910282 -20.84876870005835"></path><path vector-effect="non-scaling-stroke" stroke-linecap="square" style="stroke:black;stroke-width:1;" d="M 114.21998852480766 -55.40067077131104 109.57804349294854 -53.14916583097657"></path><path vector-effect="non-scaling-stroke" stroke-linecap="square" style="stroke:black;stroke-width:1;" fill="none" d="M 102.70195948327881 -74.61734127408556 A 126.9466033437618 126.9466033437618 0  0  1 122.18042313820763 -34.458443120473845"></path><path vector-effect="non-scaling-stroke" stroke-linecap="square" style="stroke:black;stroke-width:1;" d="M 85.69296698844722 -86.53841258648129 84.29844366865063 -85.13013091937205"></path><path vector-effect="non-scaling-stroke" stroke-linecap="square" style="stroke:black;stroke-width:1;" fill="none" d="M 52.07084187205399 -110.09454514646363 A 121.78744370529816 121.78744370529816 0  0  1 109.57804349294854 -53.14916583097657"></path><path vector-effect="non-scaling-stroke" stroke-linecap="square" style="stroke:black;stroke-width:1;" d="M 6.759490284562842 -119.61469845465895 6.578961908220403 -116.4201014673646"></path><path vector-effect="non-scaling-stroke" stroke-linecap="square" style="stroke:black;stroke-width:1;" fill="none" d="M -74.17088330746304 -94.08531694529593 A 119.80553741503809 119.80553741503809 0  0  1 84.29844366865063 -85.13013091937205"></path><path vector-effect="non-scaling-stroke" stroke-linecap="square" style="stroke:black;stroke-width:1;" d="M -78.20161172120282 -86.49526397247145 -69.85569770656238 -77.26422614729898"></path><path vector-effect="non-scaling-stroke" stroke-linecap="square" style="stroke:black;stroke-width:1;" fill="none" d="M -116.49206923077452 -5.149812792104277 A 116.60584361626687 116.60584361626687 0  0  1 6.578961908220403 -116.4201014673646"></path><path vector-effect="non-scaling-stroke" stroke-linecap="square" style="stroke:black;stroke-width:1;" d="M -97.43255953993356 36.83036092287025 -94.58776457996412 35.75500351029715"></path><path vector-effect="non-scaling-stroke" stroke-linecap="square" style="stroke:black;stroke-width:1;" fill="none" d="M -1.27821954144996 104.15346993266925 A 104.16131308797708 104.16131308797708 0  0  1 -69.85569770656238 -77.26422614729898"></path><path vector-effect="non-scaling-stroke" stroke-linecap="square" style="stroke:black;stroke-width:1;" d="M -5.55036991973397 100.9676130153139 -4.920799107937403 89.5149958005212"></path><path vector-effect="non-scaling-stroke" stroke-linecap="square" style="stroke:black;stroke-width:1;" fill="none" d="M 90.09862855969854 45.90754421571197 A 101.12005480742222 101.12005480742222 0  0  1 -94.58776457996412 35.75500351029715"></path><path vector-effect="non-scaling-stroke" stroke-linecap="square" style="stroke:black;stroke-width:1;" d="M 53.54801943612091 71.90103164417619 21.783471058465594 29.249523294940232"></path><path vector-effect="non-scaling-stroke" stroke-linecap="square" style="stroke:black;stroke-width:1;" fill="none" d="M 87.17310565074604 20.92841102979096 A 89.65014633020968 89.65014633020968 0  0  1 -4.920799107937403 89.5149958005212"></path><path vector-effect="non-scaling-stroke" stroke-linecap="square" style="stroke:black;stroke-width:1;" fill="none" d="M 36.46990847721254 0 A 36.46990847721254 36.46990847721254 0  0  1 21.783471058465594 29.249523294940232"></path><path vector-effect="non-scaling-stroke" stroke-linecap="square" style="stroke:black;stroke-width:1;" d="M 32.59214184550095 16.36479496538241 0 0"></path><text style="alignment-baseline:middle" x="250" y="0" text-anchor="start">GBCL1590713</text><text style="alignment-baseline:middle" x="145.75650696848513" y="23.085562779862887" text-anchor="start" transform="rotate(9 145.75650696848513 23.085562779862887)">GBGL1400214_Chloroclystis_sp.</text><text style="alignment-baseline:middle" x="140.35062483502617" y="45.6026823874953" text-anchor="start" transform="rotate(18 140.35062483502617 45.6026823874953)">GBGL1400114_Chloroclystis_sp.</text><text style="alignment-baseline:middle" x="149.77892560592358" y="76.3161743941508" text-anchor="start" transform="rotate(27 149.77892560592358 76.3161743941508)">GBGL1401114_Prasinocyma_sp.</text><text style="alignment-baseline:middle" x="159.9131583218949" y="116.18371030851104" text-anchor="start" transform="rotate(36 159.9131583218949 116.18371030851104)">EZCHB39209</text><text style="alignment-baseline:middle" x="139.76922541377883" y="139.76922541377883" text-anchor="start" transform="rotate(45 139.76922541377883 139.76922541377883)">EZCHB39109</text><text style="alignment-baseline:middle" x="114.71087454070283" y="157.88597379926034" text-anchor="start" transform="rotate(54 114.71087454070283 157.88597379926034)">EZCH48607</text><text style="alignment-baseline:middle" x="89.03279204880754" y="174.7366930094451" text-anchor="start" transform="rotate(63 89.03279204880754 174.7366930094451)">EZCH84107</text><text style="alignment-baseline:middle" x="60.6018095434071" y="186.51319155477415" text-anchor="start" transform="rotate(72 60.6018095434071 186.51319155477415)">EZCH83907</text><text style="alignment-baseline:middle" x="30.67860936117314" y="193.6971163222308" text-anchor="start" transform="rotate(81 30.67860936117314 193.6971163222308)">EZCH84007</text><text style="alignment-baseline:middle" x="1.2008370644790633e-14" y="196.11157524196085" text-anchor="start" transform="rotate(90 1.2008370644790633e-14 196.11157524196085)">EZCHB33709</text><text style="alignment-baseline:middle" x="-30.67860936117312" y="193.6971163222308" text-anchor="end" transform="rotate(279 -30.67860936117312 193.6971163222308)">EZCHB33809</text><text style="alignment-baseline:middle" x="-60.68357057450441" y="186.7648261341649" text-anchor="end" transform="rotate(288 -60.68357057450441 186.7648261341649)">EZCHB35609</text><text style="alignment-baseline:middle" x="-88.6739350621561" y="174.03239651746912" text-anchor="end" transform="rotate(297 -88.6739350621561 174.03239651746912)">EZCHB35909</text><text style="alignment-baseline:middle" x="-119.50451759758984" y="164.48385743595188" text-anchor="end" transform="rotate(306 -119.50451759758984 164.48385743595188)">LSAFA07313</text><text style="alignment-baseline:middle" x="-143.76416292533267" y="143.7641629253327" text-anchor="end" transform="rotate(315 -143.76416292533267 143.7641629253327)">LSAFA07013</text><text style="alignment-baseline:middle" x="-150.85468968652762" y="109.60234760631404" text-anchor="end" transform="rotate(324 -150.85468968652762 109.60234760631404)">GWOSH68710</text><text style="alignment-baseline:middle" x="-190.74091842936303" y="97.1873521997014" text-anchor="end" transform="rotate(333 -190.74091842936303 97.1873521997014)">GWOSG82910</text><text style="alignment-baseline:middle" x="-198.15750987754686" y="64.38527791568168" text-anchor="end" transform="rotate(342 -198.15750987754686 64.38527791568168)">GBLAF00914</text><text style="alignment-baseline:middle" x="-205.78993861462513" y="32.5939242518981" text-anchor="end" transform="rotate(351 -205.78993861462513 32.5939242518981)">GWOSC27010</text><text style="alignment-baseline:middle" x="-208.35513608536183" y="2.5516145049284957e-14" text-anchor="end" transform="rotate(360 -208.35513608536183 2.5516145049284957e-14)">GBLAF01814</text><text style="alignment-baseline:middle" x="-220.6436039411924" y="-34.946513721414384" text-anchor="end" transform="rotate(369 -220.6436039411924 -34.946513721414384)">GBLAF01214</text><text style="alignment-baseline:middle" x="-184.93977631393133" y="-60.09057594130418" text-anchor="end" transform="rotate(378 -184.93977631393133 -60.09057594130418)">LBEOA120011</text><text style="alignment-baseline:middle" x="-203.97431063145342" y="-103.93010230980752" text-anchor="end" transform="rotate(387 -203.97431063145342 -103.93010230980752)">PNGTY183415_Grossbeckia_ochriplaga</text><text style="alignment-baseline:middle" x="-165.92463956266124" y="-120.55130708623419" text-anchor="end" transform="rotate(396 -165.92463956266124 -120.55130708623419)">GWOSC25810</text><text style="alignment-baseline:middle" x="-148.52991864145758" y="-148.52991864145756" text-anchor="end" transform="rotate(405 -148.52991864145758 -148.52991864145756)">PMANL375415</text><text style="alignment-baseline:middle" x="-109.87367710557842" y="-151.22814270380562" text-anchor="end" transform="rotate(414 -109.87367710557842 -151.22814270380562)">GWOSK39711</text><text style="alignment-baseline:middle" x="-83.61927576993185" y="-164.11206908880047" text-anchor="end" transform="rotate(423 -83.61927576993185 -164.11206908880047)">GWOSH69210</text><text style="alignment-baseline:middle" x="-60.83374277453865" y="-187.22700864195153" text-anchor="end" transform="rotate(432 -60.83374277453865 -187.22700864195153)">LBEOA170312</text><text style="alignment-baseline:middle" x="-31.153966190356453" y="-196.6984012224979" text-anchor="end" transform="rotate(441 -31.153966190356453 -196.6984012224979)">GWOSC88310</text><text style="alignment-baseline:middle" x="-4.242901548339381e-14" y="-230.9728024599122" text-anchor="start" transform="rotate(270 -4.242901548339381e-14 -230.9728024599122)">GWOSC19910</text><text style="alignment-baseline:middle" x="36.13210679165924" y="-228.12914398423925" text-anchor="start" transform="rotate(279 36.13210679165924 -228.12914398423925)">PBEUP21411</text><text style="alignment-baseline:middle" x="73.75242424029292" y="-226.98662191111478" text-anchor="start" transform="rotate(288 73.75242424029292 -226.98662191111478)">PBEUP21311</text><text style="alignment-baseline:middle" x="109.50948594735205" y="-214.9244675727419" text-anchor="start" transform="rotate(297 109.50948594735205 -214.9244675727419)">TBMOT169311</text><text style="alignment-baseline:middle" x="118.09785301545756" y="-162.54774973693793" text-anchor="start" transform="rotate(306 118.09785301545756 -162.54774973693793)">GWOSC26910</text><text style="alignment-baseline:middle" x="128.42269381238447" y="-128.4226938123845" text-anchor="start" transform="rotate(315 128.42269381238447 -128.4226938123845)">PMANL469415</text><text style="alignment-baseline:middle" x="152.16951145005274" y="-110.55762153426207" text-anchor="start" transform="rotate(324 152.16951145005274 -110.55762153426207)">GWOSC24010</text><text style="alignment-baseline:middle" x="218.15478614989152" y="-111.15541547238452" text-anchor="start" transform="rotate(333 218.15478614989152 -111.15541547238452)">PNGTY183115_Collix_ghosha</text><text style="alignment-baseline:middle" x="207.47673704527932" y="-67.41327837614679" text-anchor="start" transform="rotate(342 207.47673704527932 -67.41327837614679)">LBEOA121811</text><text style="alignment-baseline:middle" x="217.20143163354575" y="-34.40132718696723" text-anchor="start" transform="rotate(351 217.20143163354575 -34.40132718696723)">ACML56112_Celaenorrhinus_dargei</text></g><style type="text/css">text{font-size:12px;}</style></svg>